IMDB Ratings: 6.8/10

A blind girl gets a cornea transplant so that she would be able to see again. However, she got more than what she bargained for when she realized she could even see ghosts...




Format                         : AVI
Format/Info                    : Audio Video Interleave
File size                      : 692 MiB
Duration                       : 1h 35mn
Overall bit rate               : 1 017 Kbps

Video
ID                             : 0
Format                         : MPEG-4 Visual
Format settings, BVOP          : Yes
Format settings, QPel          : No
Format settings, GMC           : No warppoints
Format settings, Matrix        : Default (H.263)
Codec ID                       : DX50
Codec ID/Hint                  : DivX 5
Duration                       : 1h 35mn
Bit rate                       : 907 Kbps
Width                          : 640 pixels
Height                         : 368 pixels
Display aspect ratio           : 16:9
Frame rate                     : 25.000 fps
Color space                    : YUV
Chroma subsampling             : 4:2:0
Bit depth                      : 8 bits
Scan type                      : Progressive
Compression mode               : Lossy
Bits/(Pixel*Frame)             : 0.154
Stream size                    : 618 MiB (89%)
Title                          : NeoVideo92CF
Writing library                : DivX 5.0.2 (UTC 2002-05-16)

Audio
ID                             : 1
Format                         : MPEG Audio
Format version                 : Version 1
Format profile                 : Layer 3
Mode                           : Joint stereo
Mode extension                 : MS Stereo
Codec ID                       : 55
Codec ID/Hint                  : MP3
Duration                       : 1h 35mn
Bit rate mode                  : Constant
Bit rate                       : 96.0 Kbps
Channel(s)                     : 2 channels
Sampling rate                  : 48.0 KHz
Compression mode               : Lossy
Stream size                    : 65.4 MiB (9%)
Alignment                      : Split accross interleaves
Interleave, duration           : 24 ms (0.60 video frame)
Title                          : NeoSound92CF0

